<svg version="1.2" xmlns="http://www.w3.org/2000/svg" viewBox="0 0 600 200" width="600" height="200"><style>.a{opacity:1;fill:#070707}.b{fill:#fff}</style><path class="a" d="m87 51c-4.1 1-10.4 3.4-13.9 5.2-3.5 1.8-8.5 5.5-11.1 8.3-2.6 2.7-5.9 7.5-7.5 10.5-1.5 3-3.4 8.4-4.1 12-0.8 3.6-1.4 9.6-1.4 13.5 0 3.9 0.7 9.9 1.6 13.5 0.8 3.6 3 9.2 4.7 12.4 1.8 3.3 5.7 8.1 8.7 10.9 3 2.7 8.2 6.2 11.5 7.7 3.3 1.5 9.3 3.5 13.3 4.4 6.5 1.4 25.4 1.6 184.4 1.6h177.3l102-102c-449.2 0.1-458.3 0.2-465.5 2z"/><path class="b" d="m89 52.6c-3.6 0.7-9.8 3-13.9 5.1-5.3 2.7-9 5.5-12.8 9.8-3.3 3.6-6.2 8.2-7.4 11.5-1.1 3-2.5 7.7-3 10.5-0.5 2.7-0.9 7.5-0.9 10.5 0 3 0.4 7.7 0.9 10.5 0.5 2.7 2 7.7 3.2 11 1.6 4 4.1 7.9 7.9 11.9 3.7 4 7.7 6.9 12.5 9.2 3.9 1.8 10.3 4 14.3 4.9 6.3 1.3 26.7 1.5 163.4 1.2l156.3-0.2c10.9-3.9 16-6.2 18.5-7.7 2.5-1.4 6.9-5.2 9.8-8.4 3.3-3.7 6.1-8 7.4-11.4 1.1-3 2.4-8 3-11 0.6-3 0.8-9.3 0.5-14-0.4-5.5-1.5-11-3.1-15.5-1.8-4.9-4.2-8.8-7.9-13-3.9-4.3-7.5-7.1-12.8-9.8-4.1-2-10.5-4.4-14.4-5.2-6-1.3-29.5-1.5-161-1.4-127.8 0-155.1 0.3-160.5 1.5z"/><path class="a" d="m93.5 58c-2.8 0.3-7.9 2-11.5 3.7-4 1.8-8.6 5.1-11.9 8.4-3 3-6.7 8-8.3 11.4-1.5 3.3-3.2 8.9-3.7 12.5-0.6 3.9-0.6 8.9 0 12.5 0.5 3.3 2.2 8.7 3.7 12 1.6 3.4 5.3 8.4 8.3 11.4 3 3 8 6.7 11.4 8.3 3.3 1.5 8.7 3.2 12 3.7 3.6 0.6 8.6 0.6 12.5 0 3.6-0.5 9.2-2.2 12.5-3.7 3.4-1.6 8.4-5.3 11.4-8.3 3.1-3.1 6.6-8 8.2-11.4 1.5-3.3 3.3-8.7 3.8-12 0.6-3.8 0.6-8.4 0-12.5-0.5-3.6-2.2-9.2-3.7-12.5-1.7-3.4-5.3-8.3-8.3-11.4-3-2.9-7.4-6.3-9.9-7.6-2.5-1.2-6.1-2.7-8-3.3-1.9-0.6-5.7-1.2-8.5-1.5-2.7-0.2-7.2-0.1-10 0.3z"/><path class="b" d="m93 64c-2.5 0.4-6.8 1.9-9.5 3.3-2.8 1.3-7 4.4-9.4 6.8-2.4 2.4-5.8 7.3-7.4 10.9-2.7 5.6-3.1 7.6-3.1 15 0 7.4 0.4 9.4 3.1 15 1.6 3.6 5 8.5 7.4 10.9 2.4 2.4 7.3 5.8 10.9 7.4 5.6 2.7 7.6 3.1 15 3.1 7.4 0 9.4-0.4 15-3.1 3.6-1.6 8.5-5 10.9-7.4 2.4-2.4 5.8-7.3 7.4-10.9 2.7-5.6 3.1-7.6 3.1-15 0-7.4-0.4-9.4-3.1-15-1.6-3.6-5-8.5-7.4-10.9-2.4-2.4-7.1-5.7-10.4-7.2-3.5-1.6-8.5-2.9-12-3.2-3.3-0.3-8-0.2-10.5 0.3z"/><path class="a" d="m94 72.7c-0.8 0.3-2.6 1-4 1.5l-2.5 0.8c5.9 4.3 8.9 7.5 10.5 10 1.7 2.5 3.5 6.7 4.1 9.5 0.7 3.5 0.7 6.6 0 10.5-0.6 3-2.4 7.5-4.1 10-1.6 2.5-4.6 5.7-6.7 7.2l-3.8 2.8c4.6 1.7 8.3 2.5 11 2.7 3.6 0.4 6.6-0.1 11-1.8 3.7-1.4 7.6-3.9 10.1-6.3 2.4-2.4 4.9-6.4 6.2-9.9 1.2-3.1 2.2-7.5 2.2-9.7 0-2.2-1-6.6-2.2-9.8-1.3-3.4-3.8-7.4-6.2-9.8-2.4-2.4-6.4-4.9-9.8-6.2-3.2-1.2-7.7-2.2-10-2.1-2.4 0-5 0.3-5.8 0.6z"/></svg>